<svg xmlns="http://www.w3.org/2000/svg" viewBox="0 0 64 64">
  <rect width="64" height="64" fill="#1a8a44"/>
  <g transform="translate(11.52,51.33) scale(0.05618,-0.05618)">
    <path d="M667 488V476H460V480Q460 510 438.0 530.0Q416 550 371 550Q327 550 303.5 537.0Q280 524 280 505Q280 478 312.0 465.0Q344 452 415 438Q498 421 551.5 402.5Q605 384 645.0 342.0Q685 300 686 228Q686 106 603.5 47.0Q521 -12 383 -12Q222 -12 132.5 42.0Q43 96 43 233H252Q252 181 279.0 163.5Q306 146 363 146Q405 146 432.5 155.0Q460 164 460 192Q460 217 429.5 229.5Q399 242 330 256Q246 274 191.0 293.5Q136 313 95.0 358.0Q54 403 54 480Q54 593 141.5 646.5Q229 700 363 700Q495 700 580.0 646.5Q665 593 667 488Z" fill="#ffffff"/>
  </g>
</svg>
